<svg xmlns="http://www.w3.org/2000/svg" viewBox="0 0 100 100">
  <!-- The ghost. Silhouette and eyes, nothing else: it has to read at 16px. -->
  <path fill="#7F77DD" d="M50 12c-20.4 0-35 15.2-35 36v34.5c0 3 3.6 4.6 5.9 2.6l5.2-4.6c1.5-1.3 3.8-1.3 5.3 0l6.2 5.5c1.5 1.3 3.8 1.3 5.3 0l5.4-4.8c1.5-1.3 3.8-1.3 5.3 0l5.4 4.8c1.5 1.3 3.8 1.3 5.3 0l6.2-5.5c1.5-1.3 3.8-1.3 5.3 0l5.2 4.6c2.3 2 5.9.4 5.9-2.6V48c0-20.8-14.6-36-35-36z"/>
  <circle cx="38.5" cy="47" r="6" fill="#F4F2FB"/>
  <circle cx="61.5" cy="47" r="6" fill="#F4F2FB"/>
</svg>
